<?xml version="1.0" encoding="UTF-8" standalone="no" ?>
<!DOCTYPE svg PUBLIC "-//W3C//DTD SVG 1.1//EN" "http://www.w3.org/Graphics/SVG/1.1/DTD/svg11.dtd">
<svg xmlns="http://www.w3.org/2000/svg" xmlns:xlink="http://www.w3.org/1999/xlink" version="1.1" width="1280" height="1024" viewBox="0 0 1280 1024" xml:space="preserve">
<desc>Created with Fabric.js 5.3.0</desc>
<defs>
</defs>
<g transform="matrix(1 0 0 1 640 512)" id="background-logo"  >
<rect style="stroke: none; stroke-width: 0; stroke-dasharray: none; stroke-linecap: butt; stroke-dashoffset: 0; stroke-linejoin: miter; stroke-miterlimit: 4; fill: rgb(255,255,255); fill-opacity: 0; fill-rule: nonzero; opacity: 1;"  paint-order="stroke"  x="-640" y="-512" rx="0" ry="0" width="1280" height="1024" />
</g>
<g transform="matrix(1.7863440472719914 0 0 1.7863440472719914 252.21530748011668 511.47177255348583)" id="logo-logo"  >
<g style=""  paint-order="stroke"   >
		<g transform="matrix(0.49309390678644766 0 0 0.49309390678644766 5.050160706897827 -5.295770765627935)"  >
<path style="stroke: none; stroke-width: 1; stroke-dasharray: none; stroke-linecap: butt; stroke-dashoffset: 0; stroke-linejoin: miter; stroke-miterlimit: 4; fill: rgb(215,232,249); fill-rule: nonzero; opacity: 1;"  paint-order="stroke"  transform=" translate(-307.89177122611034, -286.91011359603203)" d="M 348.9414978 305.7135315 C 345.0611267 299.3232117 341.39315799999997 292.75155639999997 338.9060364 285.7011414 C 335.2859802 275.4394226 334.2686463 264.47537239999997 333.1393738 253.65263369999997 C 331.0791931 233.90824889999996 328.532135 214.09861759999995 322.75943 195.10484319999998 C 319.35281380000004 183.896225 319.14810190000003 170.38462839999997 313.09091190000004 160.34062199999997 C 307.65829470000006 151.33226019999998 297.5374451 143.25730899999996 287.89364630000006 138.75077819999996 C 283.5799256000001 136.73497009999997 279.92709360000003 135.18760679999997 275.23977670000005 134.95231629999995 C 264.76248180000005 134.42649839999996 253.94821180000005 134.98313909999996 244.35299690000005 139.22367859999994 C 224.39041150000006 148.04600529999993 214.36203010000006 170.26457219999995 207.80709850000005 191.08213809999995 C 199.08078010000006 218.79576109999994 193.33541880000004 247.48777769999995 182.51931770000004 274.45449829999995 C 176.48715220000005 289.4939269999999 168.90481570000006 303.92245479999997 163.83230600000005 319.31216429999995 C 158.75979620000004 334.70181269999995 156.29830940000005 351.52908319999995 160.81143200000005 367.09194949999994 C 163.49996960000004 376.36318969999996 168.53640760000005 384.77334599999995 173.98770150000004 392.74002079999997 C 176.01699840000003 395.70578009999997 178.12051400000004 398.62918099999996 180.34323130000004 401.4537049 C 176.43740850000003 384.3322449 173.60891730000003 366.8301087 174.55490120000005 349.2673646 C 175.63912970000004 329.1375428 182.47341930000005 308.7815858 193.14254770000005 291.6971131 C 194.58218390000005 289.39175420000004 198.84017950000006 290.93069460000004 197.71194470000006 293.6235047 C 187.54092420000006 317.89859010000004 186.84445200000005 344.8473206 193.51382460000005 370.000763 C 192.87002580000004 354.8200379 192.96060190000006 339.6501771 195.37393200000005 324.5575867 C 195.85263070000005 321.5641785 200.05691540000007 322.6452332 200.28463760000005 325.2221985 C 202.12789930000005 346.0813294 203.95431530000005 368.0549011 213.93936170000006 386.8918152 C 222.39071670000007 402.8354187 236.79403700000006 416.0174256 255.13613900000007 418.5525818 C 258.3146058000001 418.9919129 256.9537660000001 423.8089295 253.80697640000008 423.37399289999996 C 234.80416880000007 420.74752809999995 219.41787730000007 407.07901 210.33126840000008 390.7221985 C 203.58425910000008 378.5769959 200.20755010000008 365.1369934 198.14761360000008 351.4515076 C 197.9773255000001 363.6737976 198.74105840000007 375.9287415 199.5296326000001 388.12612920000004 C 199.7294007000001 391.21603400000004 195.6011658000001 391.14590460000005 194.6189270000001 388.790741 C 185.6088562000001 367.1863098 182.0461731000001 343.085907 185.3382874000001 319.936615 C 181.9435120000001 330.0419617 179.8779603000001 340.59078980000004 179.4709168000001 351.09219360000003 C 178.7044373000001 370.86514280000006 182.67202760000012 390.42208860000005 187.41159060000012 409.52291870000005 C 187.7051697000001 409.82064820000005 187.99209600000012 410.1247253 188.29055790000012 410.4178772 C 210.68301400000013 432.4132996 244.18356330000012 438.6661682 275.5709534000001 438.8958435 C 302.43435670000014 439.0924377 342.45492560000014 440.1315002 369.33517460000013 431.1254578 C 383.92996220000015 435.9554749 397.5023499000001 435.5169373 413.1567078000001 435.4925232 C 420.9548035000001 435.4803772 428.7536316000001 434.7010193 436.3962098000001 433.150238 C 438.6869813000001 432.6853942 456.6623231000001 426.1556091 457.33859260000014 426.7663269 C 416.9922791 390.3305969 377.1579285 352.1808777 348.9414978 305.7135315 z" stroke-linecap="round" />
</g>
		<g transform="matrix(0.49309390678644766 0 0 0.49309390678644766 -1.8965082472442418 71.88560732164336)"  >
<path style="stroke: none; stroke-width: 1; stroke-dasharray: none; stroke-linecap: butt; stroke-dashoffset: 0; stroke-linejoin: miter; stroke-miterlimit: 4; fill: rgb(153,196,240); fill-rule: nonzero; opacity: 1;"  paint-order="stroke"  transform=" translate(-293.8038483, -443.43481817060615)" d="M 279.9971924 440.7420959 C 281.93499760000003 444.0234069 284.16870120000004 447.08856199999997 286.9176636 448.7234497 C 292.06594850000005 451.7853088 297.967804 449.293457 302.9682007 445.7480164 C 303.8344116 445.13385009999996 304.7142334 444.4613953 305.33523560000003 443.3873597 C 306.4322205 441.4901124 306.53115850000006 438.6839295 307.61050420000004 436.7652589" stroke-linecap="round" />
</g>
		<g transform="matrix(0.49309390678644766 0 0 0.49309390678644766 -29.58984513258173 71.4286805269345)"  >
<path style="stroke: none; stroke-width: 1; stroke-dasharray: none; stroke-linecap: butt; stroke-dashoffset: 0; stroke-linejoin: miter; stroke-miterlimit: 4; fill: rgb(153,196,240); fill-rule: nonzero; opacity: 1;"  paint-order="stroke"  transform=" translate(-237.64144899999997, -442.50816548149317)" d="M 224.0196686 435.4483337 C 224.95639039999998 438.1029663 226.14091489999998 440.59509269999995 227.53564459999998 442.84573359999996 C 228.4123841 444.260498 229.38117989999998 445.59048459999997 230.5201569 446.60070799999994 C 232.54019169999998 448.39233399999995 234.98095709999998 449.0812682999999 237.3804932 449.3933104999999 C 240.17745979999998 449.75704949999994 243.0756989 449.6373595999999 245.68380739999998 448.2137755999999 C 248.29193119999996 446.7901915999999 250.57737729999997 443.8908080999999 251.26322939999997 440.1790465999999" stroke-linecap="round" />
</g>
		<g transform="matrix(0.49309390678644766 0 0 0.49309390678644766 47.3708532763992 72.8028883087643)"  >
<path style="stroke: none; stroke-width: 1; stroke-dasharray: none; stroke-linecap: butt; stroke-dashoffset: 0; stroke-linejoin: miter; stroke-miterlimit: 4; fill: rgb(153,196,240); fill-rule: nonzero; opacity: 1;"  paint-order="stroke"  transform=" translate(-393.7186127, -445.29507434999994)" d="M 424.6142578 433.2157898 C 431.8201599 438.0039978 438.76159670000004 443.190155 445.3963928 448.7427368 C 447.5337219 450.5314636 449.705719 452.446289 450.8505249 454.98205559999997 L 417.3308411 461.09756459999994 C 399.834137 460.2048338999999 398.7433472 462.80679309999994 382.1944886 457.0564878999999 C 365.2177125 451.15750109999993 348.3452149 443.08471669999994 336.5867005 429.49258409999993" stroke-linecap="round" />
</g>
		<g transform="matrix(0.49309390678644766 0 0 0.49309390678644766 -18.976488910393016 98.34850036718893)"  >
<path style="stroke: none; stroke-width: 1; stroke-dasharray: none; stroke-linecap: butt; stroke-dashoffset: 0; stroke-linejoin: miter; stroke-miterlimit: 4; fill: rgb(153,196,240); fill-rule: nonzero; opacity: 1;"  paint-order="stroke"  transform=" translate(-259.1654550282984, -497.10186349673364)" d="M 371.1723938 500.0899963 C 356.1846924 482.60311889999997 332.5003357 475.2780456 309.69631960000004 472.0532837 C 294.12640380000005 469.851532 278.34255980000006 469.18164060000004 262.64068610000004 470.0278626 C 232.82356270000002 469.3708802 202.79998790000005 474.6345215 173.97610480000003 482.7255555 C 166.41122440000004 484.8490296 158.78828440000004 487.21716319999996 152.19570930000003 491.49197399999997 C 148.03514110000003 494.1898195 144.04325870000002 498.3073427 144.25244150000003 503.2616273 C 144.49867260000002 509.09289559999996 150.29641730000003 512.9888307 155.69093330000004 515.2167359 C 170.35469060000003 521.2726441 186.52726750000005 522.3604127 202.37287910000003 523.1450196 C 258.42602550000004 525.9205933 315.43402110000005 525.7362671999999 369.57260140000005 510.94866949999994 C 370.78744520000004 510.6168518999999 372.05743420000005 510.24554449999994 372.9498902 509.35702519999995 C 375.4124146 506.905426 373.4336853 502.728363 371.1723938 500.0899963 z" stroke-linecap="round" />
</g>
		<g transform="matrix(0.49309390678644766 0 0 0.49309390678644766 -38.182394448995126 -42.94286143195427)"  >
<path style="stroke: none; stroke-width: 1; stroke-dasharray: none; stroke-linecap: butt; stroke-dashoffset: 0; stroke-linejoin: miter; stroke-miterlimit: 4; fill: rgb(27,105,182); fill-rule: nonzero; opacity: 1;"  paint-order="stroke"  transform=" translate(-220.21566215056993, -210.56138945203082)" d="M 240.084259 209.6939545 L 239.9443664 209.7247162 C 239.3034973 204.0821991 236.35330190000002 199.0792694 233.06448360000002 194.38853459999999 L 232.9753723 194.32408149999998 C 226.1856994 194.31852729999997 219.8970032 197.92741399999997 214.6461487 202.23191839999998 C 209.3952942 206.53648379999998 204.7978821 211.64030459999998 199.2242737 215.5178681 C 199.6279602 216.7097016 201.257843 216.79539499999998 202.5085755 216.6567231 C 204.12161260000002 216.4778901 205.7344056 216.298996 207.34732060000002 216.120163 C 216.1809388 220.7522431 229.3218079 225.3066254 238.78469850000002 226.7333222 C 239.54153440000002 226.8473969 240.47134400000002 226.8804169 240.898468 226.245163 C 241.101593 225.943039 241.1302795 225.5601044 241.1494446 225.196518 C 241.3877258 220.668808 240.858429 214.1613617 240.084259 209.6939545 z" stroke-linecap="round" />
</g>
		<g transform="matrix(0.49309390678644766 0 0 0.49309390678644766 -20.848148723115003 -74.0766405200985)"  >
<path style="stroke: none; stroke-width: 1; stroke-dasharray: none; stroke-linecap: butt; stroke-dashoffset: 0; stroke-linejoin: miter; stroke-miterlimit: 4; fill: rgb(27,105,182); fill-rule: nonzero; opacity: 1;"  paint-order="stroke"  transform=" translate(-255.36970783499032, -147.4217345918708)" d="M 327.9020081 123.2146606 C 326.1359864 121.641159 324.3188477 120.1244964 322.4446106 118.68138880000001 C 319.7564392 116.61158750000001 315.1265259 113.2968902 311.8503723 112.04763790000001 C 291.0518494 104.1167831 260.7282104 102.25631710000002 238.56764220000002 102.39535520000001 C 233.41029360000002 102.42776490000001 241.80805970000003 93.42535400000001 246.9541168 93.39306640000001 C 269.6676636 93.2505493 292.4099731 96.15039060000001 313.6245117 103.94396970000001 C 312.2658996 92.34679410000001 307.38336180000005 83.2260971 290.82342530000005 75.86975090000001 C 279.77609250000006 70.96242520000001 273.56088260000007 71.91033930000002 262.84979250000004 77.16107170000001 C 247.88203430000004 84.4982909 233.57514960000003 94.4795531 221.43061830000005 105.90423580000001 C 218.49751280000004 106.38964840000001 215.57710270000004 106.96044920000001 212.67646790000003 107.65692130000001 C 192.83662410000002 112.42077630000001 173.59492490000002 123.23095690000001 163.07783510000004 140.71533190000002 C 160.91157530000004 144.31665030000002 159.12373350000004 148.20397940000004 158.38435370000005 152.3410033 C 156.46797190000004 163.06219470000002 161.82649240000003 173.8419799 168.80024730000005 182.2074584 C 175.73701490000005 190.5283202 186.29512030000006 198.5808715 193.71199050000004 203.95953360000001 C 194.99568190000005 199.46075430000002 196.31892410000003 194.97473140000002 197.72309890000005 190.51519770000002 C 203.86640940000007 171.00531 215.41169750000006 147.527893 232.98323070000006 137.73156730000002 C 252.07649240000006 136.77209460000003 269.87066660000005 140.4938964 288.55609140000007 144.53509510000004 C 294.2911988000001 148.77465810000004 299.6430055000001 154.19586170000002 303.00689710000006 159.77368150000004 C 309.06414810000007 169.81768780000004 309.2687379000001 183.32928450000003 312.67547620000005 194.53790270000005 C 315.42926040000003 203.59893790000004 317.44427500000006 212.84661850000003 319.02703870000005 222.18334950000005 C 335.348694 211.65338120000004 348.74969500000003 192.93969720000004 351.90618910000006 173.78546130000007 C 354.3615723 158.8861084 352.8432922 145.4369659 327.9020081 123.2146606 z" stroke-linecap="round" />
</g>
		<g transform="matrix(0.49309390678644766 0 0 0.49309390678644766 -41.05610273740666 -45.43148013338876)"  >
<path style="stroke: none; stroke-width: 1; stroke-dasharray: none; stroke-linecap: butt; stroke-dashoffset: 0; stroke-linejoin: miter; stroke-miterlimit: 4; fill: rgb(11,41,71); fill-rule: nonzero; opacity: 1;"  paint-order="stroke"  transform=" translate(-214.38774935574378, -205.51444267945132)" d="M 236.2746887 203.3895111 C 235.5169983 197.8116302 232.30862420000003 192.6456757 229.19790650000002 188.1270599 C 229.150177 188.057724 229.0942688 188.0062103 229.0431824 187.9438934 C 228.6725159 187.26628110000001 227.9776306 186.7837982 226.9501648 186.8243866 C 211.8125305 187.4224701 203.20956420000002 200.2067719 191.9372864 208.3594818 C 190.9273987 209.0898895 190.186554 210.6019745 191.0404358 211.779953 C 193.3339539 214.9440765 197.40200810000002 214.3940277 201.08999630000002 213.7743988 C 201.11215210000003 213.7870331 201.12777710000003 213.8029022 201.15066520000002 213.8151703 C 210.42037960000002 218.7963104 221.82028190000003 223.4532318 232.42721550000002 224.1889496 C 241.3573302 224.8083954 237.3008727 209.2062225 236.46969600000003 204.0296478 C 236.4308167 203.7873993 236.3597107 203.5801849 236.2746887 203.3895111 z M 228.8155823 205.5718842 C 226.2834778 205.7084809 223.72891239999998 206.1359101 221.2080384 206.4154511 C 216.7702332 206.9075165 212.3324891 207.399582 207.89474489999998 207.8916474 C 206.9337464 207.9982148 202.02883909999997 208.95249950000002 198.63845829999997 209.3262177 C 206.85946659999996 202.1993256 214.63064579999997 192.95982370000002 225.73617559999997 191.9072114 C 228.06857309999998 195.3671723 230.25070199999996 199.0204927 231.13113409999997 203.13865669999998 C 231.8364563 206.4377899 231.5692444 205.4233856 228.8155823 205.5718842 z M 230.2339783 218.7772064 C 228.5960388 218.6263275 226.8971863 218.09129330000002 225.3102112 217.6992035 C 220.1355286 216.4204559 215.0771179 214.74528500000002 210.1977844 212.6363373 C 216.0867615 211.9833222 221.9756775 211.330307 227.8646545 210.67735290000002 C 229.4150695 210.50541690000003 230.940155 210.42472840000002 232.2689514 210.1717987 C 232.4809875 212.27049250000002 232.6203308 214.3764496 232.662384 216.4853363 C 232.7142029 219.0828094 232.794342 219.0131073 230.2339783 218.7772064 z" stroke-linecap="round" />
</g>
		<g transform="matrix(0.49309390678644766 0 0 0.49309390678644766 7.70098343856597 -4.164892460218766)"  >
<path style="stroke: none; stroke-width: 1; stroke-dasharray: none; stroke-linecap: butt; stroke-dashoffset: 0; stroke-linejoin: miter; stroke-miterlimit: 4; fill: rgb(153,196,240); fill-rule: nonzero; opacity: 1;"  paint-order="stroke"  transform=" translate(-313.2676696, -289.20354754409937)" d="M 419.0265808 417.6659241 C 382.83969119999995 384.9863587 347.1119079 350.76956179999996 321.80435179999995 309.0925598 C 318.32400509999997 303.3610535 315.03414919999994 297.4668884 312.80337519999995 291.14328 C 309.55654899999996 281.9394836 308.64413449999995 272.1056823 307.6312561 262.3986511 C 305.78347779999996 244.689743 303.499054 226.922348 298.32144159999996 209.8866424 C 295.26589959999995 199.8335418 295.08242789999997 187.7148895 289.6496276 178.70628349999998 C 284.777069 170.6266326 275.69955439999995 163.38413989999998 267.0499572 159.34220879999998 C 263.1809386 157.53416439999998 259.9046935 156.146347 255.7005309 155.9352874 C 246.30337509999998 155.4636687 236.60397329999998 155.9629363 227.99795519999998 159.7663421 C 219.27542099999997 163.6211395 212.67190539999999 170.3314666 207.50875839999998 178.3549041 C 211.01010119999998 178.1428069 214.54104599999997 178.182907 218.03036479999997 178.3580169 C 222.23452739999996 178.5690765 225.51077249999997 179.95689389999998 229.37979109999998 181.7648773 C 238.02938829999997 185.8068695 247.10690289999997 193.0493622 251.97946149999999 201.129013 C 255.7638853 207.4042816 257.0018614 215.1878509 258.4371031 222.7319183 C 263.7257384 221.2899017 268.7281798 218.7913055 273.0205992 215.38041679999998 C 279.7317198 210.04746999999998 284.674835 202.52641289999997 286.9079893 194.25047299999997 C 288.1880796 197.44786069999998 287.5118101 201.05326839999998 286.8180845 204.42680359999997 C 286.1649473 207.60264589999997 285.5054014 210.79991149999998 284.2754209 213.79985049999996 C 280.230438 223.66545109999996 270.76412939999994 229.96824649999996 261.5936582 235.53001409999996 C 266.114105 251.57829289999995 268.2294614 268.22549439999995 269.96108979999997 284.82138069999996 C 270.97396819999994 294.52841199999995 271.8863828 304.36215219999997 275.13320889999994 313.5660096 C 276.44924889999993 317.29666149999997 278.13931239999994 320.8752747 280.0142513999999 324.361786 C 278.0842586999999 305.2384339 279.48959319999994 285.873871 284.2358089999999 267.08572399999997 C 284.8266902999999 264.7467347 288.5186458999999 264.660309 289.0572200999999 267.08572399999997 C 294.1786800999999 290.14889539999996 294.43289149999987 314.90200819999995 302.9992976999999 337.0246888 C 302.5741267999999 331.1514588 302.14895589999986 325.2781678 301.7237849999999 319.40493779999997 C 301.54373129999993 316.917511 305.2487483999999 316.0168152 306.3824763999999 318.14309699999995 C 315.94033769999993 336.0693054999999 320.4509577999999 356.86978159999995 332.21945149999993 373.53775029999997 C 332.14291339999994 364.88266 331.35568199999994 356.25997929999994 330.5013728999999 347.63430789999995 C 330.2137141999999 344.72988899999996 334.6530452999999 344.37545779999994 335.4120784999999 346.96969609999996 C 340.4695735999999 364.255951 345.77749599999987 382.4684754 358.2601619999999 396.02804569999995 C 370.18930019999993 408.9862365999999 386.6781917999999 416.34707649999996 402.81588709999994 422.61965949999995 C 407.9740906 420.9416809 418.5378113 417.2243958 419.0265808 417.6659241 z" stroke-linecap="round" />
</g>
		<g transform="matrix(0.49309390678644766 0 0 0.49309390678644766 20.438596961114683 27.273227350222385)"  >
<path style="stroke: none; stroke-width: 1; stroke-dasharray: none; stroke-linecap: butt; stroke-dashoffset: 0; stroke-linejoin: miter; stroke-miterlimit: 4; fill: rgb(153,196,240); fill-rule: nonzero; opacity: 1;"  paint-order="stroke"  transform=" translate(-339.0996933732428, -352.96040881891645)" d="M 354.7246399 399.5635681 C 346.5429382 390.6759949 341.2384338 379.9718323 337.1142273 368.7634582 C 337.2605896 372.7210388 337.2864075 376.6838073 337.1175232 380.6556701 C 337.0318909 382.6706237 334.3472595 384.1595153 332.849762 382.4234313 C 320.3855896 367.9726256 315.0351258 349.7552184 307.6736756 332.5265807 C 308.09829720000005 338.3923034 308.52297980000003 344.25802600000003 308.9476014 350.1237487 C 309.1310731 352.6579894 305.4699403 353.4461974 304.288971 351.3855285 C 291.8492127 329.67947380000004 290.5312195 304.634613 286.5244446 280.42819210000005 C 283.37258909999997 298.65634150000005 283.3987732 317.23843380000005 286.5973206 335.45065300000005 C 307.5506287 368.7123718 335.06729129999997 397.24996940000005 363.9474183 424.15097040000006 C 368.9455872 425.00424190000007 374.0522157 425.50082390000006 379.39950569999996 425.4925231000001 C 384.28909309999995 425.4848937000001 389.17788699999994 425.1331481000001 394.02005009999993 424.4516295000001 C 379.5731506 418.4693909 365.4084167 411.1690369 354.7246399 399.5635681 z" stroke-linecap="round" />
</g>
		<g transform="matrix(0.49309390678644766 0 0 0.49309390678644766 -2.303187498005684 -5.072732628405589)"  >
<path style="stroke: none; stroke-width: 1; stroke-dasharray: none; stroke-linecap: butt; stroke-dashoffset: 0; stroke-linejoin: miter; stroke-miterlimit: 4; fill: rgb(11,41,71); fill-rule: nonzero; opacity: 1;"  paint-order="stroke"  transform=" translate(-292.97909819628893, -287.3624374518994)" d="M 447.6962891 454.0557251 C 445.1030884 449.21771240000004 440.317627 445.9625244 436.090149 442.6416016 C 432.2375489 439.6151123 428.2928468 436.7163086 424.2705689 433.9241944 C 426.8892823 433.05456549999997 429.5017701 432.1660157 432.1253663 431.3110352 C 433.6016847 430.8298951 435.0786134 430.3438721 436.57006839999997 429.9108887 C 437.38305669999994 429.67486579999996 439.6888428 429.4749146 438.6739502 429.177063 C 441.01123049999995 429.8630371 442.9787598 426.6907349 441.10632319999996 424.99859619999995 C 408.9958496 395.98132329999993 377.1973877 366.04559329999995 351.2316284 331.24621579999996 C 338.5910644 314.30529779999995 324.8106079 295.6292114 320.4637451 274.57202149999995 C 318.13586419999996 263.29534909999995 317.539917 251.69091799999995 316.13781739999996 240.27758789999996 C 315.47058109999995 234.84643559999995 314.7235108 229.42187499999994 313.84234619999995 224.02020259999995 C 313.92419429999995 223.97711179999996 314.00537109999993 223.94567869999995 314.08770749999996 223.89147949999995 C 333.99218749999994 210.79071049999993 349.15344239999996 186.38854979999994 347.12976069999996 161.89251709999994 C 346.06042479999996 148.94848629999993 338.2661743 138.82141109999992 329.6243896 129.69061279999994 C 323.2647705 122.97118379999993 316.2081298 116.71495819999994 308.2565307 111.94408419999993 C 309.1035766 103.04802709999993 307.0416869 93.13506319999993 301.1276855 86.28868869999994 C 294.4244384 78.52867889999993 283.55450429999996 72.29131319999993 273.3454589 70.96532439999994 C 262.0396728 69.49687959999994 250.80357349999997 76.62084199999994 241.50602709999998 82.17436979999994 C 231.04173269999998 88.42485809999994 221.3259124 95.84496309999994 212.3990935 104.13439179999993 C 189.57920819999998 108.06377409999993 166.6097869 118.64971159999993 153.80821219999999 138.72167969999992 C 136.28282159999998 166.20007329999993 161.73307789999998 189.94799809999992 182.80662529999998 205.5114135999999 C 181.68644709999998 209.6725463999999 180.61308279999997 213.77563479999992 179.53153989999998 217.7470702999999 C 174.97056579999997 234.4954833999999 170.53428649999998 251.3139647999999 164.4914398 267.6051635999999 C 158.41014099999998 283.9999389999999 150.10002129999998 299.4799804999999 144.3264007 315.9942626999999 C 139.0496063 331.0872802999999 136.0464324 347.53112789999994 139.3297576 363.40216059999995 C 142.42900079999998 378.38330069999995 151.56999199999998 391.90826409999994 160.9505462 403.69921869999996 C 175.02128589999998 421.385498 194.5860442 431.49218749999994 215.83268729999998 436.68963619999994 C 218.20225519999997 442.83935539999993 221.34092699999997 448.4674681999999 227.23130789999996 450.83551019999993 C 227.22911059999996 450.8593748999999 227.22154229999995 450.8795164999999 227.21989429999996 450.90374749999995 C 226.53068529999996 461.11450189999994 225.83720389999996 472.09790029999994 226.79087819999995 482.53472889999995 C 213.96934499999995 481.86840809999995 201.26475519999997 483.44610589999996 188.96720879999995 487.21984849999996 C 185.90007009999997 488.16107159999996 187.20811459999996 492.9889525 190.29637139999994 492.04125959999993 C 202.39317319999995 488.3291623999999 214.79484549999995 486.8646238999999 227.39909359999996 487.58685289999994 C 227.47911069999995 488.11938459999993 227.55711359999995 488.65283189999997 227.64781189999997 489.18103009999993 C 227.68296819999998 489.38586409999994 227.72410579999996 489.5798947999999 227.76713559999996 489.7706296999999 C 217.10716249999996 491.75927719999993 205.00297539999997 493.5173337999999 195.76957699999997 499.24737529999993 C 193.04087829999997 500.94073469999995 195.54862969999996 505.2679440999999 198.29313659999997 503.56475809999995 C 207.68937679999996 497.73364239999995 220.46598819999997 496.28070049999997 231.11961369999997 494.20739729999997 C 231.16014099999998 494.19952379999995 231.19151309999998 494.18334939999994 231.23057559999998 494.1740721 C 232.03501899999998 494.5108641 232.97001649999999 494.74249249999997 234.05088809999998 494.906616 C 240.3563691 495.8640135 246.7203827 496.4543455 253.08189399999998 496.8740232 C 256.29431159999996 497.0859373 256.2813721 492.0850828 253.08189399999998 491.8740232 C 248.55497749999998 491.5753782 244.03685009999998 491.1842649 239.5330048 490.63458230000003 C 235.4140473 490.1318357 233.2777558 491.10510230000006 232.389267 486.54180890000004 C 231.9586029 484.32989480000003 232.04740909999998 481.87109360000005 231.9315033 479.62078840000004 C 231.4565277 470.39636210000003 231.5701752 461.17126450000006 232.1559296 451.9566649 C 239.5908051 452.536621 245.5692597 448.51336660000004 247.5710907 441.19049060000003 C 255.52232360000002 441.67645250000004 263.5454712 441.7357787 271.57080080000003 441.40655510000005 C 271.63305670000005 441.60345450000005 271.71539310000003 441.80242910000004 271.838562 442.0039062000001 C 275.20721430000003 447.5156860000001 279.66827390000003 452.56549070000005 286.1635132 452.5705566000001 C 285.5164795 461.9467163000001 285.057251 471.73767090000007 285.7111206 481.2470092000001 C 273.149353 480.6815795000001 260.7055054 482.2720336000001 248.65251160000003 485.97070300000007 C 245.58537290000004 486.91186510000006 246.89341740000003 491.7397460000001 249.98167420000001 490.7920531000001 C 261.786499 487.1696166000001 273.8822632 485.6931151000001 286.1725464 486.2938842000001 C 286.3007813 487.4063110000001 286.44036869999996 488.5150146000001 286.6062622 489.6147460000001 C 286.6157226 489.6774291000001 286.628418 489.73388660000006 286.6385498 489.7953490000001 C 276.01086430000004 491.7739867000001 263.9680176 493.5409545000001 254.7726288 499.2473754000001 C 252.0439911 500.94073480000014 254.5517426 505.2679442000001 257.2962647 503.56475820000014 C 266.4226685 497.90112290000013 278.7322999 496.36639390000016 289.1939698 494.38323960000014 C 290.17865 495.03527820000016 291.4472657 495.4276122000001 293.0540162 495.6726683000001 C 299.3585816 496.63421620000014 305.723816 497.2203978000001 312.08496099999996 497.64007550000014 C 315.29742439999995 497.85198960000014 315.28448489999994 492.85113510000014 312.08496099999996 492.64007550000014 C 306.91137699999996 492.29876690000015 301.74896249999995 491.83300760000014 296.60742189999996 491.15820290000016 C 292.7966919 490.65801980000015 292.2076416 491.49090550000017 291.39672849999994 487.3610838000002 C 290.9154052999999 484.91003400000017 291.01702879999993 482.15692120000017 290.8964232999999 479.66400130000017 C 290.4445189999999 470.3238524000002 290.5962523999999 460.97875960000016 291.2322997999999 451.6519774000002 C 294.0832518999999 450.6987303000002 296.8749389999999 449.1210326000002 299.0906981999999 447.2603758000002 C 302.2132567999999 444.6383055000002 302.2175902999999 441.5617674000002 303.7692259999999 438.02709940000017 C 303.7952879999999 437.96771220000016 303.8052977999999 437.90985090000015 303.8267821999999 437.8508299000002 C 312.5291136999999 436.2648924000002 321.1135253999999 434.1704100000002 329.4913939999999 431.57562240000016 C 329.4971312999999 431.5822142000002 329.5002440999999 431.58923320000014 329.5060423999999 431.59582500000016 C 342.5424803999999 446.28912330000014 361.82299799999987 456.09802230000014 380.6383055999999 461.1546629000002 C 402.2608031999999 466.9656370000002 424.7545164999999 461.6723021000002 446.2022093999999 457.7282713000002 C 447.8587036 457.423645 448.3981934 455.3652344 447.6962891 454.0557251 z M 239.6147919 89.2251511 C 247.9168549 83.9008103 258.2003784 76.8502732 268.2166138 75.8721848 C 278.0487671 74.9120408 289.2781983 81.2816086 296.00231940000003 88.1149216 C 301.49078380000003 93.6924362 303.6224366 101.5875779 303.42199710000006 109.2965012 C 302.20843510000003 108.69207 300.97882080000005 108.1166916 299.72479250000004 107.5875779 C 287.12634280000003 102.271843 273.3715821 102.2993089 259.93182370000005 101.9503709 C 247.03428650000006 101.615471 234.09391780000004 101.51451879999999 221.26213070000006 102.90941629999999 C 227.0609589 97.9395676 233.1714325 93.3574142 239.6147919 89.2251511 z M 156.5272675 143.9078979 C 167.2029877 124.77025599999999 188.3978119 114.0969772 209.1546479 109.80248259999999 C 222.3682709 107.0686569 235.92961129999998 106.61815639999999 249.38310249999998 106.74761199999999 C 262.1865846 106.87078089999999 275.74572759999995 106.3698654 288.30554209999997 109.16582489999999 C 299.5579835 111.6707687 309.4628297 117.78020479999999 318.01177989999996 125.36486049999999 C 326.2165528 132.644226 334.96087659999995 141.32214349999998 339.47393809999994 151.4683838 C 345.14202889999996 164.2113037 341.65130629999993 179.9649658 335.76342779999993 192.03601079999999 C 330.53790289999995 202.7491456 322.69372569999996 211.8806153 312.9179687999999 218.65014649999998 C 312.17694099999994 214.57690429999997 311.34826669999995 210.51989749999998 310.39910889999993 206.48791509999998 C 309.2229613999999 201.49182129999997 307.6644286999999 196.5960084 306.4037475999999 191.62548829999997 C 308.3988647999999 189.46752929999997 309.4963378999999 186.7546387 308.6967773999999 183.23699949999997 C 308.1920166999999 181.01635739999998 305.6347656999999 181.04010009999996 304.4334106999999 182.35314939999998 C 303.83050539999994 179.1290283 303.2409057999999 175.90222169999998 302.4663696999999 172.71392819999997 C 300.5041504999999 164.63653559999997 296.9373169999999 157.87487789999997 291.7517090999999 151.93280029999997 C 295.2178345999999 152.87750239999997 298.6688233999999 153.89367679999998 302.0954590999999 155.01129149999997 C 305.1617432999999 156.01135249999996 306.47546399999993 151.18493649999996 303.42462169999993 150.18988039999996 C 271.9920654999999 139.93823249999997 238.63706979999995 136.79547119999995 205.84758009999993 141.04998779999997 C 202.70127879999993 141.45825199999996 202.66056839999993 146.46356199999997 205.84758009999993 146.04998779999997 C 208.11582959999993 145.75567629999998 210.38633739999995 145.50579829999998 212.65776079999992 145.28240969999996 C 211.2206879999999 146.56713869999996 209.85154739999993 147.91137699999996 208.5499116999999 149.31341559999996 C 206.7344209999999 149.45141609999996 204.93602009999992 149.83697519999996 203.2156220999999 150.48101809999994 L 201.1500702999999 151.77038579999996 C 194.7643890999999 156.12835699999997 189.7180634999999 161.97058109999995 187.35783399999988 169.71386719999995 C 185.81163039999987 174.78637699999996 186.3552094999999 180.76123049999995 188.8321381999999 185.25048829999994 C 187.1235199999999 190.25561529999993 185.6155854999999 195.33447269999994 184.2128144999999 200.37115479999994 C 166.7640228 187.4113159 143.5884247 167.1027222 156.5272675 143.9078979 z M 285.2389526 170.9276123 C 282.9081421 166.5220947 278.3232422 163.63983149999999 273.5100708 162.38562009999998 C 266.8690186 160.6550293 259.5405884 161.78155519999999 253.7281342 165.42645259999998 L 251.6230927 167.39147949999997 C 248.0196381 171.03234859999998 245.0305634 175.07141109999998 242.9542695 179.52471919999996 C 237.44676220000002 176.65728759999996 231.5184174 174.86865229999995 225.4061738 174.23565669999996 C 225.44468700000002 174.16912839999998 225.48808300000002 174.10638419999995 225.5259858 174.03936759999996 C 227.6292573 170.32128899999995 228.7167207 165.74786369999995 227.6702119 161.54107659999997 C 226.6017915 157.24597159999996 223.429123 153.82647699999995 219.7704316 151.77709949999996 C 218.2627412 150.93261709999996 216.6572114 150.30236809999997 215.0051728 149.88049309999997 C 216.8119965 148.17633049999998 218.7310639 146.57855219999996 220.8054658 145.13891599999997 C 221.0319062 144.98175049999998 221.2073823 144.80108639999997 221.3608247 144.61206049999996 C 241.8441621 143.41387929999996 262.3485719 145.08581539999994 282.3431398 149.59509269999995 C 282.4307863 149.69897449999996 282.5178224 149.80310049999994 282.6304933 149.90161129999996 C 291.0242311 157.24047849999997 295.8093263 165.51849359999994 298.1757814 176.38134759999997 C 299.159424 180.89654539999998 300.2004396 185.37536619999997 301.2614137 189.84747309999997 C 298.26190199999996 192.02880849999997 293.5470582 193.20166009999997 291.1605226 193.20367429999996 C 288.19317639999997 193.20623779999997 285.176758 192.91033929999995 282.17358409999997 192.58679199999997 C 283.67095959999995 190.2468262 284.9700319 187.79479979999996 285.84698499999996 185.16156009999997 C 287.3884277 180.5326538 287.5218506 175.2425537 285.2389526 170.9276123 z M 229.8897552 446.562561 C 225.7631073 445.4057617 223.4128265 441.78491210000004 221.73020929999998 437.99786370000004 C 225.85697929999998 438.8256835 230.0316619 439.4857787 234.2295379 439.98931880000004 C 236.9543304 440.31616210000004 239.6960906 440.57775870000006 242.44511409999998 440.8071289 C 240.5085907 446.03302 235.5422821 448.1471558 229.8897552 446.562561 z M 297.5325317 441.1251831 C 296.3930664 443.557251 293.8552246 445.0230713 291.4476318 446.16375730000004 C 284.9571533 449.23895260000006 280.6779174 446.1533203 277.2178344 441.11254880000007 C 284.298767 440.65209960000004 291.3642577 439.86853020000007 298.3722533 438.7656860000001 C 298.1349487 439.5725098 297.8853149 440.3721924 297.5325317 441.1251831 z M 249.0388641 436.1783447 C 222.1424408 434.9918213 193.33891290000003 428.770935 173.1685028 409.71923830000003 C 162.5124969 399.6542359 152.98466489999998 386.1118164 147.3783417 372.52771 C 140.9811249 357.0270386 142.3116303 340.084961 146.9076996 324.2877198 C 151.3412934 309.0491334 158.6265717 294.8735963 164.7863007 280.30310069999996 C 171.1783905 265.18292249999996 175.97892769999999 249.51629649999995 180.3575898 233.71301279999994 C 184.41148379999998 219.08172619999993 188.0195161 204.24682629999995 192.809372 189.82214369999994 C 193.2928315 190.16607679999993 193.7936249 190.48718279999994 194.3311616 190.75604259999994 C 198.1507417 192.66668709999993 202.6893769 192.33605969999994 206.632187 190.74316419999994 C 210.5749971 189.15020769999992 214.01860059999998 186.40136729999995 217.2682954 183.51367199999993 C 218.8619233 182.09759529999994 220.4329072 180.62261979999994 221.8709565 179.02404799999994 C 228.6260224 179.27343759999994 235.1227265 181.01440439999993 241.15831 184.23999039999993 C 240.5375214 186.31628429999992 240.1094819 188.47235119999993 239.9037324 190.71130389999993 C 239.0677339 199.80773939999995 244.4510957 209.92504899999994 253.366562 211.82629409999993 C 258.3341066 212.8856202999999 263.58581549999997 211.30242939999994 267.82128919999997 208.50030529999992 C 272.0567018 205.69824229999992 275.4160768 201.7674561999999 278.5128175 197.73724379999993 C 278.63665779999997 197.57604999999992 278.75805679999996 197.41204849999994 278.8812867 197.25012219999994 C 285.7320557 198.02679459999993 292.96148689999995 199.35321059999993 299.315857 196.37652599999993 C 300.3703004 195.88256849999993 301.4239503 195.34002699999994 302.4288941 194.73974619999993 C 303.4012452 198.78082289999992 304.3823243 202.82214369999994 305.35797119999995 206.88342299999994 C 310.75561519999997 229.35217299999994 311.01965329999996 252.44763199999994 315.46777339999994 275.01300059999994 C 319.52423089999996 295.5914917999999 332.18334959999993 313.57873549999994 344.32122799999996 330.2535401999999 C 356.64282219999996 347.1806641999999 370.36621089999994 363.04364029999994 384.8519897 378.14617939999994 C 400.529541 394.49108909999995 417.0883789 409.9535523999999 433.85803219999997 425.1668702999999 C 431.7849121 425.89318869999994 429.76025389999995 426.82788099999993 428.30444329999995 427.31164569999993 C 423.17810049999997 429.01538109999996 418.28637689999994 430.75561539999995 412.93542469999994 431.6043702999999 C 391.2061155999999 435.0511475999999 370.77239979999996 430.82513449999993 350.19909659999996 423.92572039999993 C 315.7149047 412.36114519999995 284.9180907 392.6388551999999 262.2291259 363.85687269999994 C 247.1131438 344.68157969999993 240.0820159 320.64025889999994 252.39060969999997 298.12152109999994 C 253.93461599999998 295.29681409999995 249.61869809999996 292.77056899999997 248.07328789999997 295.5979004999999 C 226.80180349999998 334.5142212999999 257.79138179999995 371.94677749999994 287.01788319999997 395.8186035999999 C 301.05902089999995 407.2871704999999 316.73889149999997 416.25561529999993 333.5114135 423.0862427999999 C 334.3678588 423.4350586999999 335.2312621 423.7797852999999 336.0941772 424.1246948999999 C 308.2939453 433.961731 278.446106 437.4755859 249.0388641 436.1783447 z M 381.9675293 456.333252 C 364.7265625 451.69976810000003 347.159668 442.9385987 334.7319946 429.87323000000004 C 337.368042 428.97937010000004 339.98645020000004 428.04602050000005 342.5726318 427.0479126 C 342.7419433 426.98260500000004 342.8934936 426.9021606 343.03558350000003 426.8146362 C 359.1473389 432.8544922 376.1933594 437.6796264 393.29486080000004 437.9772949 C 401.3952636 438.1183471 410.07525630000004 437.7042846 418.10205070000006 435.7525635 C 423.03771960000006 439.0621338 427.87731930000007 442.50988770000004 432.5546264000001 446.177124 C 435.4401855000001 448.4395141 438.79406730000005 450.7218017 441.2744140000001 453.5790405 C 421.8125 457.2555542 401.4776001 461.5765381 381.9675293 456.333252 z" stroke-linecap="round" />
</g>
</g>
</g>
<g transform="matrix(1.9211538461538462 0 0 1.9211538461538462 811.0267536974949 489.16924646030054)" id="text-logo"  >
<g style=""  paint-order="stroke"   >
		<g transform="matrix(1 0 0 1 0 0)" id="text-logo-path-0"  >
<path style="stroke: none; stroke-width: 0; stroke-dasharray: none; stroke-linecap: butt; stroke-dashoffset: 0; stroke-linejoin: miter; stroke-miterlimit: 4; fill: rgb(11,41,71); fill-rule: nonzero; opacity: 1;"  paint-order="stroke"  transform=" translate(-188.11, 17.099999999999998)" d="M 0.78 -0.49 L 0.78 0 L 15.88 0 C 24.4 0 29.4 -3.82 29.4 -9.21 C 29.4 -13.62 26.12 -17 20.19 -18.08 C 24.99 -19.21 27.64 -22.1 27.64 -25.87 C 27.64 -30.72 23.13 -34.2 15.39 -34.2 L 0.78 -34.2 L 0.78 -33.71 C 4.46 -32.88 5.49 -28.32 5.49 -22.49 L 5.49 -11.71 C 5.49 -5.88 4.51 -1.32 0.78 -0.49 Z M 14.31 -18.42 L 10.83 -18.42 L 10.83 -32.73 L 14.31 -32.73 C 18.67 -32.73 20.82 -29.89 20.82 -25.87 C 20.82 -21.51 18.72 -18.42 14.31 -18.42 Z M 15.39 -1.47 L 10.83 -1.47 L 10.83 -16.95 L 15.39 -16.95 C 20.24 -16.95 22.59 -13.77 22.59 -9.21 C 22.59 -4.7 20.29 -1.47 15.39 -1.47 Z M 33.81 -0.49 L 33.81 0 L 58.56 0 L 58.65 -1.42 L 59.09 -7.99 L 58.56 -8.04 C 57.28 -2.89 52.23 -1.47 45.77 -1.47 L 43.86 -1.47 L 43.86 -22.49 C 43.86 -28.27 44.84 -32.88 48.56 -33.71 L 48.56 -34.2 L 33.81 -34.2 L 33.81 -33.71 C 37.49 -32.88 38.51 -28.32 38.51 -22.49 L 38.51 -11.71 C 38.51 -5.88 37.53 -1.32 33.81 -0.49 Z M 65.81 -22.49 L 65.81 -11.37 C 65.81 -4.41 70.61 0.49 77.52 0.49 C 84.38 0.49 89.23 -4.41 89.23 -11.37 L 89.23 -22.49 C 89.23 -28.27 90.21 -32.88 93.93 -33.71 L 93.93 -34.2 L 83.1 -34.2 L 83.1 -33.71 C 86.78 -32.88 87.76 -28.32 87.76 -22.49 L 87.76 -10.34 C 87.76 -5.44 84.33 -1.96 79.48 -1.96 C 74.68 -1.96 71.15 -5.44 71.15 -10.34 L 71.15 -22.49 C 71.15 -28.27 72.13 -32.88 75.85 -33.71 L 75.85 -34.2 L 61.1 -34.2 L 61.1 -33.71 C 64.78 -32.88 65.81 -28.32 65.81 -22.49 Z M 98.05 -0.49 L 98.05 0 L 122.79 0 L 122.89 -1.42 L 123.33 -7.99 L 122.79 -8.04 C 121.52 -2.89 116.47 -1.47 110 -1.47 L 108.09 -1.47 L 108.09 -16.86 L 108.44 -16.86 C 113.68 -16.86 117.84 -15.68 118.58 -11.22 L 119.02 -11.22 L 119.02 -23.91 L 118.58 -23.91 C 117.84 -19.5 113.73 -18.33 108.44 -18.33 L 108.09 -18.33 L 108.09 -32.73 L 109.52 -32.73 C 115.93 -32.73 121.03 -31.26 122.3 -26.12 L 122.84 -26.17 L 122.4 -32.78 L 122.3 -34.2 L 98.05 -34.2 L 98.05 -33.71 C 101.72 -32.88 102.75 -28.32 102.75 -22.49 L 102.75 -11.71 C 102.75 -5.88 101.77 -1.32 98.05 -0.49 Z M 151.12 -17.15 C 151.12 -6.27 157.78 0.49 168.56 0.49 C 172.72 0.49 176.94 -0.83 180.32 -3.04 L 180.32 -11.37 L 179.34 -11.37 C 178.31 -4.9 174.34 -1.08 168.61 -1.08 C 162.14 -1.08 157.98 -7.35 157.98 -17.15 C 157.98 -26.9 162.09 -33.22 168.61 -33.22 C 174.34 -33.22 178.31 -28.86 179.34 -21.46 L 180.32 -21.46 L 180.32 -31.26 C 176.94 -33.42 172.77 -34.69 168.56 -34.69 C 157.78 -34.69 151.12 -28.03 151.12 -17.15 Z M 195.61 -10.93 L 195.8 -11.47 L 208.45 -11.47 L 208.74 -10.78 C 211.04 -5.39 212.37 -1.32 208.64 -0.49 L 208.64 0 L 224.08 0 L 224.08 -0.49 C 220.35 -1.32 217.12 -5.39 214.86 -10.78 L 204.77 -34.69 L 203.1 -34.69 L 194.04 -10.93 C 192.03 -5.49 188.94 -1.32 185.22 -0.49 L 185.22 0 L 196.15 0 L 196.15 -0.49 C 192.42 -1.32 193.55 -5.44 195.61 -10.93 Z M 207.86 -12.94 L 196.39 -12.94 L 201.78 -27.15 Z M 232.46 -22.49 L 232.46 -11.71 C 232.46 -5.88 231.48 -1.32 227.75 -0.49 L 227.75 0 L 238.58 0 L 238.58 -0.49 C 234.86 -1.32 233.93 -5.88 233.93 -11.71 L 233.93 -27.69 L 255.39 0 L 257.84 0 L 257.84 -22.49 C 257.84 -28.27 258.82 -32.88 262.54 -33.71 L 262.54 -34.2 L 251.66 -34.2 L 251.66 -33.71 C 255.34 -32.88 256.37 -28.32 256.37 -22.49 L 256.37 -8.18 L 236.18 -34.2 L 227.75 -34.2 L 227.75 -33.71 C 231.43 -32.88 232.46 -28.32 232.46 -22.49 Z M 274.06 -10.93 L 274.25 -11.47 L 286.89 -11.47 L 287.19 -10.78 C 289.49 -5.39 290.81 -1.32 287.09 -0.49 L 287.09 0 L 302.53 0 L 302.53 -0.49 C 298.8 -1.32 295.57 -5.39 293.31 -10.78 L 283.22 -34.69 L 281.55 -34.69 L 272.49 -10.93 C 270.48 -5.49 267.39 -1.32 263.67 -0.49 L 263.67 0 L 274.6 0 L 274.6 -0.49 C 270.87 -1.32 272 -5.44 274.06 -10.93 Z M 286.31 -12.94 L 274.84 -12.94 L 280.23 -27.15 Z M 306.2 -0.49 L 306.2 0 L 320.95 0 L 320.95 -0.49 C 317.23 -1.32 316.25 -5.88 316.25 -11.71 L 316.25 -15.78 L 319.33 -15.78 L 321.29 -15.83 L 324.58 -10.14 C 327.52 -5.05 329.48 -1.32 325.75 -0.49 L 325.75 0 L 341.19 0 L 341.19 -0.49 C 337.46 -1.32 333.54 -5.1 330.65 -10.14 L 326.73 -17 C 330.7 -18.57 332.86 -21.46 332.86 -24.99 C 332.86 -30.38 327.91 -34.2 319.33 -34.2 L 306.2 -34.2 L 306.2 -33.71 C 309.88 -32.88 310.9 -28.32 310.9 -22.49 L 310.9 -11.71 C 310.9 -5.88 309.92 -1.32 306.2 -0.49 Z M 318.84 -17.25 L 316.25 -17.25 L 316.25 -32.73 L 318.84 -32.73 C 323.69 -32.73 326.05 -29.55 326.05 -24.99 C 326.05 -20.48 323.74 -17.25 318.84 -17.25 Z M 349.17 -0.49 L 349.17 0 L 363.92 0 L 363.92 -0.49 C 360.2 -1.32 359.27 -5.88 359.27 -11.71 L 359.27 -15.97 L 364.46 -24.26 C 367.6 -29.25 371.71 -32.88 375.44 -33.71 L 375.44 -34.2 L 364.46 -34.2 L 364.46 -33.71 C 368.14 -32.88 366.03 -29.25 362.89 -24.26 L 358.48 -17.25 L 354.17 -24.21 C 351.13 -29.16 348.98 -32.88 352.7 -33.71 L 352.7 -34.2 L 338.39 -34.2 L 338.39 -33.71 C 340.94 -32.88 344.76 -29.16 347.85 -24.21 L 353.88 -14.5 L 353.88 -11.71 C 353.88 -5.88 352.9 -1.32 349.17 -0.49 Z" stroke-linecap="round" />
</g>
</g>
</g>
<g transform="matrix(1.9211538461538462 0 0 1.9211538461538462 633.3222014628408 559.9008234807343)" id="tagline-b9524e8b-5c55-4dc7-902a-89042e3645d4-logo"  >
<g style=""  paint-order="stroke"   >
		<g transform="matrix(1 0 0 1 0 0)" id="tagline-b9524e8b-5c55-4dc7-902a-89042e3645d4-logo-path-0"  >
<path style="stroke: none; stroke-width: 0; stroke-dasharray: none; stroke-linecap: butt; stroke-dashoffset: 0; stroke-linejoin: miter; stroke-miterlimit: 4; fill: rgb(27,105,182); fill-rule: nonzero; opacity: 1;"  paint-order="stroke"  transform=" translate(-93.09, 7)" d="M 19.2 -14 L 18.16 -14 L 14.82 -3.18 L 10.52 -12 L 10.08 -12 L 5.86 -3.44 L 2.44 -14 L 0.4 -14 L 5 0.16 L 5.3 0.16 L 9.9 -9.44 L 14.28 0.16 L 14.58 0.16 Z M 29.12 0 L 36.82 0 L 36.82 -0.96 L 31.16 -0.96 L 31.16 -6.92 L 35.68 -6.92 L 35.68 -7.88 L 31.16 -7.88 L 31.16 -13.04 L 36.82 -13.04 L 36.82 -14 L 29.12 -14 Z M 47.22 0 C 48 0.08 48.74 0.16 49.62 0.16 C 54.68 0.16 57.22 -1.62 57.22 -3.74 C 57.22 -5.76 55.22 -7.12 51.76 -7.5 C 54.06 -8.2 55.7 -9.42 55.7 -11.16 C 55.7 -13.32 52.78 -14.16 49.56 -14.16 C 48.42 -14.16 47.56 -14.04 47.22 -14 Z M 49.26 -6.64 C 49.58 -6.92 49.94 -7.18 50.76 -7.18 C 52.92 -7.18 55.14 -5.46 55.14 -3.74 C 55.14 -2 53.86 -0.62 52.16 -0.62 C 51.06 -0.62 50 -0.82 49.26 -1.28 Z M 49.26 -13.18 C 49.46 -13.38 49.7 -13.54 50.36 -13.54 C 52.08 -13.54 53.62 -12.18 53.62 -10.84 C 53.62 -9.5 52.7 -8.14 49.26 -7.66 Z M 81.54 0 C 82.54 0.08 83.48 0.16 84.6 0.16 C 90.06 0.16 93.3 -3.12 93.3 -7 C 93.3 -11.48 89.66 -14.16 84.6 -14.16 C 83.12 -14.16 81.98 -14.04 81.54 -14 Z M 83.58 -12.78 C 84 -13.02 84.38 -13.36 85.8 -13.36 C 88.9 -13.36 91.22 -10.16 91.22 -7 C 91.22 -3.84 89.54 -0.96 87.14 -0.96 C 85.84 -0.96 84.6 -1.12 83.58 -1.4 Z M 103.7 0 L 111.4 0 L 111.4 -0.96 L 105.74 -0.96 L 105.74 -6.92 L 110.26 -6.92 L 110.26 -7.88 L 105.74 -7.88 L 105.74 -13.04 L 111.4 -13.04 L 111.4 -14 L 103.7 -14 Z M 129.08 -12.42 C 128.4 -13.36 127.7 -14.16 125.72 -14.16 C 123.4 -14.16 121.98 -12.3 121.98 -10.82 C 121.98 -7.54 127.66 -5.48 127.66 -3.06 C 127.66 -1.94 127.02 -1.08 125.56 -1.08 C 124.06 -1.08 122.84 -1.86 122.28 -2.82 L 121.56 -2.44 C 122.34 -0.92 123.58 0.16 125.56 0.16 C 128.16 0.16 129.58 -1.6 129.58 -3.48 C 129.58 -6.78 123.82 -8.86 123.82 -11.4 C 123.82 -12.42 124.66 -13.26 125.7 -13.26 C 126.54 -13.26 127.18 -12.28 127.64 -11.32 Z M 139.98 0 L 142.02 0 L 142.02 -14 L 139.98 -14 Z M 162.54 0.16 L 164.58 -0.32 L 164.58 -7.06 L 162.54 -6.58 L 162.54 -3.68 C 161.76 -2.02 160.4 -1.4 159.08 -1.4 C 156.68 -1.4 154.5 -3.84 154.5 -7 C 154.5 -10.16 156.86 -13.12 159.32 -13.12 C 161.26 -13.12 162.08 -11.52 162.62 -10.02 L 164.52 -11.62 C 163.7 -13.16 161.82 -14.16 159.32 -14.16 C 156.04 -14.16 152.42 -10.96 152.42 -7 C 152.42 -3.04 155.06 0.16 158.32 0.16 C 159.9 0.16 161.54 -0.72 162.54 -2.44 Z M 174.9 0 L 175.86 0 L 175.86 -10.74 L 185.14 0 L 185.78 0 L 185.78 -14 L 184.88 -14 L 184.88 -3.36 L 175.78 -14 L 174.9 -14 Z" stroke-linecap="round" />
</g>
</g>
</g>
</svg>